<svg id="Layer_1" data-name="Layer 1" xmlns="http://www.w3.org/2000/svg" viewBox="0 0 447.72 67.7"><defs><style>.cls-1{fill:#fff;stroke:#eb008b;}.cls-1,.cls-2,.cls-3,.cls-4,.cls-5,.cls-6,.cls-7{stroke-miterlimit:10;}.cls-2{fill:#231f20;stroke:#231f20;}.cls-3,.cls-4,.cls-5,.cls-7{fill:#00adee;}.cls-3,.cls-4,.cls-5{stroke:#1b75bb;}.cls-4{font-size:8.85px;}.cls-4,.cls-5{stroke-width:0.25px;font-family:BerlinSansFBDemi-Bold, Berlin Sans FB Demi;font-weight:700;}.cls-5{font-size:64.41px;}.cls-6{fill:none;stroke:#f6921e;}.cls-7{stroke:#00adee;}.cls-8{fill:#f6921e;}</style></defs><title>Afonium</title><path class="cls-1" d="M51.33,14.13" transform="translate(-2.91 -11.67)"/><rect class="cls-2" x="0.5" y="3.83" width="80.94" height="61.08" rx="27.84"/><rect class="cls-2" x="76.97" y="3.83" width="370.24" height="61.08" rx="27.84"/><path class="cls-3" d="M42.07,52.89" transform="translate(-2.91 -11.67)"/><path class="cls-3" d="M43.45,49.69l-4.9,9.24,4.9,3.62,4.91-3.67Z" transform="translate(-2.91 -11.67)"/><polygon class="cls-3" points="35.64 47.43 40.53 59.85 45.44 47.38 40.84 50.88 35.64 47.43"/><path class="cls-3" d="M53.17,50.82" transform="translate(-2.91 -11.67)"/><path class="cls-3" d="M52.81,48.14l.43,8.1,4.76.6,1.82-4.33Z" transform="translate(-2.91 -11.67)"/><polygon class="cls-3" points="50.4 44.68 58.71 51.26 56.97 40.96 55.29 45.06 50.4 44.68"/><path class="cls-3" d="M62.37,46.54" transform="translate(-2.91 -11.67)"/><path class="cls-3" d="M61.36,44.46l2.57,6.37,3.79-.21.19-3.7Z" transform="translate(-2.91 -11.67)"/><polygon class="cls-3" points="61.1 39.24 69.25 43.26 65.08 35.34 64.93 38.84 61.1 39.24"/><path class="cls-3" d="M71.45,42.86" transform="translate(-2.91 -11.67)"/><path class="cls-3" d="M70.24,41.59l3.32,4,2.62-.65-.75-2.54Z" transform="translate(-2.91 -11.67)"/><polygon class="cls-3" points="70.73 33.94 77.41 35.56 72.59 30.75 73.32 33.14 70.73 33.94"/><path class="cls-3" d="M32.55,51.93" transform="translate(-2.91 -11.67)"/><path class="cls-3" d="M32.88,48.93,32.48,58,28,58.68l-1.71-4.85Z" transform="translate(-2.91 -11.67)"/><polygon class="cls-3" points="29.5 46.46 21.74 53.82 23.36 42.29 24.93 46.88 29.5 46.46"/><path class="cls-3" d="M24,47.13" transform="translate(-2.91 -11.67)"/><path class="cls-3" d="M24.9,44.81l-2.4,7.13L19,51.71l-.18-4.15Z" transform="translate(-2.91 -11.67)"/><polygon class="cls-3" points="19.5 40.36 11.89 44.86 15.78 35.99 15.92 39.91 19.5 40.36"/><path class="cls-3" d="M15.47,43" transform="translate(-2.91 -11.67)"/><path class="cls-3" d="M16.6,41.59,13.49,46l-2.44-.73.7-2.84Z" transform="translate(-2.91 -11.67)"/><polygon class="cls-3" points="10.51 34.42 4.27 36.24 8.76 30.85 8.08 33.53 10.51 34.42"/><text class="cls-4" transform="translate(17.47 30.85) scale(1.32 1)">afonium</text><text class="cls-5" transform="translate(97.56 54.39) scale(1.37 1)">afonium</text><path class="cls-6" d="M11.68,42.51c19.22-22.26,43.66-16,43.66-16" transform="translate(-2.91 -11.67)"/><circle class="cls-7" cx="52.17" cy="14.7" r="0.48"/><path class="cls-6" d="M75.43,42.37c-16.62-21.07-41-16.16-41-16.16" transform="translate(-2.91 -11.67)"/><rect class="cls-3" x="37.8" y="13.58" width="6.36" height="1.92" rx="0.88"/><path class="cls-3" d="M42.33,25.25a1.93,1.93,0,0,1,0,1.92" transform="translate(-2.91 -11.67)"/><path class="cls-3" d="M43.89,25.25a3.65,3.65,0,0,1,0,1.92" transform="translate(-2.91 -11.67)"/><path class="cls-3" d="M45.46,25.25" transform="translate(-2.91 -11.67)"/><path class="cls-3" d="M45.2,25.25a1.92,1.92,0,0,1,0,1.92" transform="translate(-2.91 -11.67)"/><circle class="cls-7" cx="31.66" cy="14.38" r="0.48"/><rect class="cls-8" x="41.67" y="24.94" width="2.29" height="1.59"/><rect class="cls-8" x="281.25" y="11.18" width="15.18" height="11.02" rx="5.41"/><polyline class="cls-6" points="10.64 34.44 8.14 33.55 8.76 30.85"/><polyline class="cls-6" points="19.58 40.27 15.95 39.96 15.86 35.99"/><polyline class="cls-6" points="29.5 46.46 24.93 46.88 23.36 42.29"/><polyline class="cls-6" points="45.44 47.21 40.84 50.88 35.64 47.26"/><polyline class="cls-6" points="56.97 40.96 55.29 45.06 50.4 44.68"/><polyline class="cls-6" points="65 35.26 64.93 38.84 61.01 39.16"/><polyline class="cls-6" points="72.52 30.71 73.32 33.14 70.73 33.94"/></svg>