<svg xmlns="http://www.w3.org/2000/svg" viewBox="0 0 31.65 29.99"><defs><style>.a,.c{fill:#fff;}.a{stroke:#eb008b;}.a,.b,.c,.d,.e,.f,.g{stroke-miterlimit:10;}.b{fill:#231f20;stroke:#231f20;}.c,.d{stroke:#fff;}.d,.g{fill:none;}.e,.f{fill:#00adee;}.e{stroke:#00adee;}.f{stroke:#1b75bb;}.g{stroke:#f6921e;}</style></defs><title>afonium_svg</title><path class="a" d="M18.65.57" transform="translate(-0.01 -0.72)"/><rect class="b" x="0.5" y="0.5" width="30.65" height="28.99" rx="11.27"/><path class="c" d="M15.14,19" transform="translate(-0.01 -0.72)"/><path class="c" d="M15.67,17.45l-1.86,4.38,1.86,1.72,1.86-1.74Z" transform="translate(-0.01 -0.72)"/><polygon class="c" points="13.81 21.2 15.66 27.09 17.52 21.17 15.78 22.83 13.81 21.2"/><path class="c" d="M19.35,18" transform="translate(-0.01 -0.72)"/><path class="c" d="M19.21,16.71l.16,3.85,1.81.28.69-2.05Z" transform="translate(-0.01 -0.72)"/><polygon class="c" points="19.39 19.89 22.54 23.01 21.88 18.12 21.25 20.07 19.39 19.89"/><path class="c" d="M22.83,16" transform="translate(-0.01 -0.72)"/><path class="c" d="M22.45,15l1,3,1.44-.1.07-1.76Z" transform="translate(-0.01 -0.72)"/><polygon class="c" points="23.45 17.31 26.53 19.21 24.95 15.45 24.9 17.12 23.45 17.31"/><path class="c" d="M26.27,14.21" transform="translate(-0.01 -0.72)"/><path class="c" d="M25.81,13.6l1.26,1.89,1-.31L27.78,14Z" transform="translate(-0.01 -0.72)"/><polygon class="c" points="27.09 14.79 29.62 15.56 27.8 13.28 28.07 14.41 27.09 14.79"/><path class="c" d="M11.54,18.51" transform="translate(-0.01 -0.72)"/><path class="c" d="M11.67,17.09l-.16,4.3-1.68.32-.64-2.3Z" transform="translate(-0.01 -0.72)"/><polygon class="c" points="11.48 20.73 8.54 24.23 9.15 18.75 9.75 20.93 11.48 20.73"/><path class="c" d="M8.28,16.24" transform="translate(-0.01 -0.72)"/><path class="c" d="M8.64,15.13l-.91,3.39-1.34-.11-.07-2Z" transform="translate(-0.01 -0.72)"/><polygon class="c" points="7.7 17.84 4.81 19.98 6.29 15.76 6.34 17.62 7.7 17.84"/><path class="c" d="M5.07,14.28" transform="translate(-0.01 -0.72)"/><path class="c" d="M5.5,13.6,4.32,15.71l-.92-.34L3.66,14Z" transform="translate(-0.01 -0.72)"/><polygon class="c" points="4.29 15.02 1.93 15.88 3.63 13.32 3.37 14.6 4.29 15.02"/><path class="d" d="M3.64,14C10.92,3.48,20.17,6.45,20.17,6.45" transform="translate(-0.01 -0.72)"/><ellipse class="e" cx="20.06" cy="5.66" rx="0.18" ry="0.23"/><path class="d" d="M27.78,14C21.48,4,12.25,6.3,12.25,6.3" transform="translate(-0.01 -0.72)"/><rect class="f" x="14.62" y="5.13" width="2.41" height="0.91" rx="0.35"/><path class="f" d="M15.24,5.85a1.14,1.14,0,0,1,0,.91" transform="translate(-0.01 -0.72)"/><path class="f" d="M15.83,5.85a2.1,2.1,0,0,1,0,.91" transform="translate(-0.01 -0.72)"/><path class="f" d="M16.43,5.85" transform="translate(-0.01 -0.72)"/><path class="f" d="M16.33,5.85a1.1,1.1,0,0,1,0,.91" transform="translate(-0.01 -0.72)"/><ellipse class="e" cx="12.3" cy="5.51" rx="0.18" ry="0.23"/><polyline class="g" points="4.34 15.03 3.39 14.6 3.63 13.32"/><polyline class="g" points="7.72 17.8 6.35 17.65 6.32 15.76"/><polyline class="g" points="11.48 20.73 9.75 20.93 9.15 18.75"/><polyline class="g" points="17.52 21.09 15.78 22.83 13.81 21.11"/><polyline class="g" points="21.88 18.12 21.25 20.07 19.39 19.89"/><polyline class="g" points="24.92 15.42 24.9 17.12 23.41 17.27"/><polyline class="g" points="27.77 13.26 28.07 14.41 27.09 14.79"/></svg>